<?xml version="1.0" encoding="utf-8"?>
<!-- Generator: Adobe Illustrator 19.0.0, SVG Export Plug-In . SVG Version: 6.00 Build 0)  -->
<svg version="1.1" id="Layer_1" xmlns="http://www.w3.org/2000/svg" xmlns:xlink="http://www.w3.org/1999/xlink" x="0px" y="0px"
	 viewBox="0 0 32 32" style="enable-background:new 0 0 32 32;" xml:space="preserve">
<g>
	<path id="XMLID_5_" d="M6,19.4c0.7-0.1,1-0.2,1-0.9v-5.1c-0.6-0.7-0.8-0.8-0.9-0.8v-0.3h2.3l3.8,4.6h0v-3.3c0-0.7-0.1-1-1-1.1v-0.3
		h2.3v0.3c-0.8,0.1-0.8,0.3-0.8,0.9v6.4h-0.3L7.4,14h0v4.3c0,0.8,0.2,1,1,1.1v0.3H6V19.4"/>
	<path id="XMLID_4_" d="M18.6,14.5c-0.2-0.8-0.8-2-2.1-2c-0.6,0-1.2,0.3-1.2,1c0,0.6,0.2,0.8,1.1,1.3l1.6,0.8c0.4,0.2,1.2,0.8,1.2,2
		c0,1-0.7,2.3-2.7,2.3c-1,0-1.5-0.4-1.9-0.4c-0.2,0-0.3,0.2-0.3,0.4H14v-2.7h0.3c0.2,1.1,0.8,2.3,2.2,2.3c1.3,0,1.4-1.1,1.4-1.2
		c0-0.7-0.5-1-1.2-1.3L16,16.6c-1.9-0.9-1.9-1.8-1.9-2.3c0-0.7,0.3-2.1,2.4-2.1c0.9,0,1.4,0.4,1.7,0.4c0.2,0,0.3-0.2,0.4-0.4h0.3
		v2.4H18.6"/>
	<path id="XMLID_3_" d="M19.8,12.3H26v2.2h-0.3c-0.2-1.1-0.5-1.8-2.4-1.8c-0.6,0-0.8,0-0.8,0.5v2.5c1.3,0,1.5-0.7,1.7-1.6h0.3v3.7
		h-0.3c-0.1-0.9-0.3-1.7-1.7-1.7v2.5c0,0.7,0.4,0.7,1.2,0.8v0.3h-3.9v-0.3c0.6-0.1,1-0.1,1-0.8v-5.3c0-0.7-0.4-0.7-1-0.8V12.3"/>
	<path d="M29.5,14.2c-0.1-0.3-0.2-0.5-0.3-0.8c-0.1-0.5-0.1-1,0-1.5c0.2-1,0.9-1.5,1.7-1.8c-0.1-0.2-0.2-0.5-0.3-0.7
		c-0.9,0.4-2,0.5-2.8-0.3c-0.2-0.2-0.3-0.4-0.5-0.6c-0.3-0.5-0.5-1-0.7-1.4c-0.2-1,0.2-1.7,0.9-2.3c-0.2-0.2-0.4-0.4-0.6-0.6
		c-0.7,0.7-1.6,1.2-2.7,0.8c-0.2-0.1-0.4-0.2-0.6-0.3c-0.5-0.4-0.9-0.8-1.2-1.1c-0.5-0.8-0.4-1.7,0-2.5c-0.2-0.1-0.5-0.2-0.7-0.3
		c-0.3,0.9-1,1.8-2.1,1.8c-0.3,0-0.7,0-1-0.1c-0.4-0.1-0.8-0.3-1.2-0.5c-0.8-0.5-1-1.4-1-2.3c-0.3,0-0.6,0-0.8,0
		c0.1,1-0.3,2-1.3,2.5c-0.2,0.1-0.5,0.2-0.7,0.3C13,2.8,12.5,2.8,12,2.8c-1-0.2-1.5-0.9-1.8-1.7C10,1.2,9.7,1.3,9.5,1.4
		c0.4,0.9,0.5,2-0.3,2.8C9,4.3,8.8,4.5,8.6,4.7C8.1,5,7.6,5.2,7.2,5.3c-1,0.2-1.7-0.2-2.3-0.9C4.7,4.6,4.5,4.9,4.3,5
		c0.7,0.7,1.2,1.6,0.8,2.7C5.1,7.9,5,8.1,4.9,8.3C4.5,8.7,4.1,9.1,3.8,9.5C3,10,2.1,9.9,1.3,9.5C1.2,9.7,1.1,10,1,10.2
		c0.9,0.3,1.8,1,1.8,2.1c0,0.3,0,0.6-0.1,0.9c-0.1,0.5-0.3,0.9-0.5,1.3c-0.5,0.8-1.4,1-2.3,1c0,0.3,0,0.6,0,0.8c1-0.1,2,0.3,2.5,1.3
		c0.1,0.2,0.2,0.5,0.3,0.7C2.8,19,2.8,19.5,2.8,20c-0.2,1-0.9,1.5-1.7,1.8c0.1,0.2,0.2,0.5,0.3,0.7c0.9-0.4,2-0.5,2.8,0.3
		c0.2,0.2,0.4,0.4,0.6,0.6c0.3,0.5,0.5,1,0.6,1.4c0.2,1-0.2,1.7-0.9,2.3c0.2,0.2,0.4,0.4,0.6,0.6c0.7-0.7,1.6-1.2,2.7-0.8
		c0.2,0.1,0.5,0.2,0.7,0.3c0.4,0.3,0.8,0.7,1.1,1.1c0.5,0.8,0.4,1.7,0,2.5c0.2,0.1,0.5,0.2,0.7,0.3c0.3-0.9,1-1.8,2.1-1.8
		c0.3,0,0.6,0,0.9,0c0.5,0.2,1,0.3,1.4,0.5c0.8,0.5,1,1.4,1,2.3c0.3,0,0.6,0,0.8,0c-0.1-1,0.3-2,1.3-2.5c0.3-0.1,0.5-0.2,0.8-0.3
		c0.5-0.1,1-0.1,1.5,0c1,0.2,1.5,0.9,1.8,1.7c0.2-0.1,0.5-0.2,0.7-0.3c-0.4-0.9-0.5-2,0.3-2.8c0.2-0.2,0.4-0.4,0.6-0.6
		c0.5-0.2,0.9-0.4,1.3-0.6c1-0.2,1.7,0.2,2.3,0.9c0.2-0.2,0.4-0.4,0.6-0.6c-0.7-0.7-1.2-1.6-0.8-2.7c0.1-0.3,0.3-0.6,0.4-0.9
		c0.3-0.4,0.7-0.7,1-1c0.8-0.5,1.7-0.4,2.5,0c0.1-0.2,0.2-0.5,0.3-0.7c-0.9-0.3-1.8-1-1.8-2.1c0-0.3,0-0.6,0.1-0.9
		c0.1-0.5,0.3-0.9,0.5-1.3c0.5-0.8,1.4-1,2.3-1c0-0.3,0-0.6,0-0.8C31,15.6,29.9,15.3,29.5,14.2 M28.8,14.7l-0.1,0.2
		c-0.3,0.3-0.7,0.2-1,0.1c-0.2-0.1-0.5-0.1-0.7-0.2c0,0.3,0,0.6,0.1,0.9c0,0,0,0,0,0c0.1,0.1,0,0.2,0,0.3c0,0.3,0,0.6,0,1
		c0.3-0.1,0.6-0.1,0.8-0.2c0.3,0,0.6-0.1,0.8,0.2c0.2,0.4,0.2,1.1,0.1,1.5c0,0,0,0.1,0,0.1c-0.1,0.4-0.2,0.7-0.4,1l-0.2,0.1
		c-0.3,0.1-0.7-0.1-1-0.3c-0.2-0.1-0.4-0.3-0.6-0.4c-0.1,0.3-0.2,0.6-0.3,0.9c0,0,0,0,0,0c0,0.2-0.1,0.2-0.1,0.3
		c-0.1,0.3-0.3,0.6-0.4,0.9c0.3,0,0.6,0.1,0.9,0.2c0.3,0.1,0.6,0.2,0.7,0.5c0.1,0.5-0.3,1-0.5,1.5c0,0,0,0,0,0
		c-0.2,0.3-0.5,0.7-0.8,0.9l-0.2,0c-0.4,0-0.6-0.4-0.8-0.6c-0.1-0.2-0.3-0.4-0.4-0.6c-0.2,0.2-0.4,0.5-0.6,0.7c0,0,0,0,0,0
		c-0.1,0.2-0.1,0.2-0.3,0.2c-0.2,0.2-0.5,0.4-0.7,0.6c0.3,0.2,0.5,0.3,0.7,0.5c0.2,0.2,0.5,0.4,0.5,0.7c-0.1,0.4-0.6,0.8-0.9,1.1
		c-0.4,0.2-0.7,0.5-1.2,0.6l-0.2-0.1c-0.3-0.1-0.4-0.6-0.5-0.9c0-0.2-0.1-0.5-0.1-0.7c-0.3,0.1-0.5,0.3-0.8,0.4c0,0,0,0,0,0
		c-0.1,0.1-0.2,0.1-0.3,0.1c-0.3,0.1-0.6,0.2-0.9,0.3c0.2,0.2,0.3,0.5,0.5,0.7c0.1,0.3,0.3,0.5,0.2,0.8c-0.3,0.4-0.8,0.5-1.3,0.7
		c-0.4,0.1-0.9,0.2-1.3,0.1l-0.2-0.1c-0.3-0.3-0.2-0.7-0.1-1c0.1-0.2,0.1-0.5,0.2-0.7c-0.3,0-0.6,0.1-0.9,0.1c0,0,0,0,0,0
		c-0.1,0.1-0.2,0-0.3,0c-0.3,0-0.6,0-0.9,0c0.1,0.3,0.1,0.6,0.2,0.9c0,0.3,0.1,0.6-0.2,0.8c-0.4,0.2-0.9,0.2-1.4,0.1
		c-0.4-0.1-0.9-0.2-1.3-0.4l-0.1-0.2c-0.1-0.3,0.1-0.7,0.3-1c0.1-0.2,0.3-0.4,0.4-0.6c-0.3-0.1-0.6-0.2-0.9-0.3c0,0,0,0,0,0
		c-0.2,0-0.2-0.1-0.3-0.1c-0.3-0.1-0.6-0.3-0.8-0.4c0,0.3-0.1,0.6-0.2,0.9c-0.1,0.3-0.2,0.6-0.5,0.7c-0.4,0.1-0.8-0.2-1.2-0.4
		c-0.4-0.3-0.8-0.5-1.1-0.9l0-0.2c0-0.4,0.4-0.6,0.6-0.8c0.2-0.1,0.4-0.2,0.6-0.4c-0.2-0.2-0.5-0.4-0.7-0.6c0,0,0,0,0,0
		c-0.1,0-0.2-0.1-0.2-0.2c-0.2-0.2-0.4-0.5-0.6-0.7c-0.1,0.2-0.3,0.5-0.5,0.7c-0.2,0.2-0.4,0.5-0.7,0.5c-0.4-0.1-0.8-0.5-1-0.9
		c-0.2-0.4-0.5-0.8-0.7-1.3l0.1-0.2c0.1-0.3,0.6-0.4,0.9-0.5c0.2,0,0.5-0.1,0.7-0.1c-0.1-0.3-0.3-0.5-0.4-0.8c0,0,0,0,0,0
		c-0.1-0.1-0.1-0.2-0.1-0.3c-0.1-0.3-0.2-0.6-0.3-0.9c-0.2,0.2-0.5,0.3-0.7,0.5c-0.3,0.1-0.5,0.3-0.8,0.2c-0.3-0.2-0.5-0.7-0.6-1.1
		c-0.1-0.5-0.2-1-0.1-1.5l0.1-0.2c0.3-0.3,0.7-0.2,1-0.1C4.6,17,4.8,17,5,17.1c0-0.3,0-0.6,0-0.9c0,0,0,0,0,0c-0.1-0.1,0-0.2,0-0.3
		c0-0.3,0-0.6,0.1-1C4.8,15,4.5,15,4.2,15.1c-0.3,0-0.6,0.1-0.8-0.2c-0.2-0.4-0.2-1-0.1-1.5c0.1-0.4,0.2-0.8,0.4-1.2l0.2-0.1
		c0.3-0.1,0.7,0.1,1,0.3c0.2,0.1,0.4,0.3,0.6,0.4c0.1-0.3,0.2-0.6,0.3-0.9c0,0,0,0,0,0c0-0.2,0.1-0.2,0.2-0.3
		c0.1-0.3,0.3-0.6,0.4-0.8c-0.3,0-0.6-0.1-0.9-0.2c-0.3-0.1-0.6-0.2-0.7-0.5C4.7,9.8,4.9,9.3,5,9C5.3,8.6,5.6,8.1,6,7.8l0.2,0
		c0.4,0,0.6,0.4,0.8,0.6c0.1,0.2,0.3,0.4,0.4,0.6C7.6,8.8,7.8,8.6,8,8.4c0,0,0,0,0,0c0.1-0.1,0.1-0.2,0.3-0.2C8.5,7.9,8.7,7.7,9,7.5
		C8.7,7.4,8.5,7.2,8.2,7C8,6.9,7.8,6.6,7.8,6.3c0.1-0.4,0.5-0.8,0.9-1.1C9,5,9.4,4.7,9.9,4.6l0.2,0.1c0.3,0.1,0.4,0.6,0.5,0.9
		c0,0.2,0.1,0.5,0.1,0.7c0.3-0.1,0.5-0.3,0.8-0.4c0,0,0,0,0,0c0.1-0.1,0.2-0.1,0.3-0.1c0.3-0.1,0.6-0.2,0.9-0.3
		c-0.2-0.2-0.3-0.5-0.5-0.7c-0.1-0.3-0.3-0.5-0.2-0.8c0.2-0.3,0.7-0.5,1.1-0.6c0.5-0.1,1-0.2,1.5-0.1l0.2,0.1c0.3,0.3,0.2,0.7,0.1,1
		C15,4.6,15,4.8,14.9,5.1c0.3,0,0.6,0,0.9-0.1c0,0,0,0,0,0c0.1-0.1,0.2,0,0.3,0c0.3,0,0.6,0,0.9,0.1c-0.1-0.3-0.1-0.6-0.2-0.9
		c0-0.3-0.1-0.6,0.2-0.8c0.4-0.2,1.1-0.2,1.5-0.1c0.1,0,0.2,0,0.3,0c0.3,0.1,0.6,0.2,0.8,0.3l0.1,0.2c0.1,0.3-0.1,0.7-0.3,1
		c-0.2,0.2-0.3,0.4-0.5,0.6c0.3,0.1,0.6,0.2,0.8,0.3c0,0,0.1,0,0.1-0.1c0.2,0,0.3,0.1,0.3,0.2c0.3,0.1,0.5,0.3,0.8,0.4
		c0-0.3,0.1-0.6,0.2-0.9c0.1-0.3,0.2-0.6,0.5-0.7c0.3,0,0.7,0.1,1.1,0.3c0.4,0.3,0.9,0.6,1.2,1l0,0.2c0,0.4-0.4,0.6-0.6,0.8
		c-0.2,0.1-0.4,0.3-0.6,0.4c0.2,0.2,0.5,0.4,0.7,0.6c0,0,0,0,0.1,0c0.2,0.1,0.2,0.2,0.2,0.3C24,8.5,24.3,8.7,24.5,9
		c0.2-0.3,0.3-0.5,0.5-0.7c0.2-0.2,0.4-0.5,0.7-0.5c0.4,0.1,0.7,0.5,1,0.8c0.3,0.4,0.6,0.8,0.7,1.3l-0.1,0.2
		c-0.1,0.3-0.6,0.4-0.9,0.5c-0.2,0-0.5,0.1-0.7,0.1c0.1,0.3,0.3,0.5,0.4,0.8c0,0,0,0,0,0c0.1,0.1,0.1,0.2,0.1,0.3
		c0.1,0.3,0.2,0.6,0.3,0.9c0.2-0.2,0.5-0.3,0.7-0.5c0.3-0.1,0.5-0.3,0.8-0.2c0.4,0.3,0.5,0.8,0.7,1.3C28.8,13.8,28.9,14.3,28.8,14.7
		"/>
</g>
</svg>
