<?xml version="1.0" encoding="utf-8"?>
<!-- Generator: Adobe Illustrator 19.0.0, SVG Export Plug-In . SVG Version: 6.00 Build 0)  -->
<svg version="1.1" id="Layer_1" xmlns="http://www.w3.org/2000/svg" xmlns:xlink="http://www.w3.org/1999/xlink" x="0px" y="0px"
	 viewBox="0 0 81 36" style="enable-background:new 0 0 81 36;" xml:space="preserve">
<style type="text/css">
	.st0{clip-path:url(#XMLID_124_);}
	.st1{clip-path:url(#XMLID_125_);}
	.st2{fill:#807F84;}
	.st3{fill:#BFBFC1;}
	.st4{fill:#FDFDFD;}
	.st5{fill:#020202;}
	.st6{fill:#6658A4;}
	.st7{fill:#F16F21;}
	.st8{fill:#F9A619;}
	.st9{fill:#EAEDF6;}
	.st10{fill:#1B74BA;}
	.st11{fill:#FBFBFB;}
	.st12{fill:#B5B1D4;}
	.st13{fill:#FAFAFA;}
	.st14{fill:#6758A3;}
	.st15{fill:#070707;}
</style>
<g id="XMLID_1_">
	<defs>
		<rect id="XMLID_4_" x="0" y="0" width="81" height="36"/>
	</defs>
	<clipPath id="XMLID_124_">
		<use xlink:href="#XMLID_4_"  style="overflow:visible;"/>
	</clipPath>
	<g id="XMLID_2_" class="st0">
		<defs>
			<rect id="XMLID_3_" x="0" y="0" width="81" height="36"/>
		</defs>
		<clipPath id="XMLID_125_">
			<use xlink:href="#XMLID_3_"  style="overflow:visible;"/>
		</clipPath>
		<g id="XMLID_5_" class="st1">
			<g id="XMLID_64_">
				<path id="XMLID_118_" class="st2" d="M0.1,36c0-11.9,0-23.8,0-35.6c0-0.3,0.1-0.3,0.3-0.3c26.9,0,53.8,0,80.6,0
					c0,0.1,0,0.3,0,0.4c0,11.7,0,23.4,0,35.1c0,0.1,0,0.3,0,0.4c-0.1,0-0.2,0-0.4,0C53.8,36,26.9,36,0.1,36z M78.3,31.2
					c0-1.8,0-3.7,0-5.5c0-2.4,0-4.9,0-7.3c0-2.8,0-5.7,0-8.5c0-2.3,0-4.6,0-6.9c0-0.3-0.2-0.3-0.3-0.3c-11.4,0-22.8,0-34.2,0
					c-0.3,0-0.4,0.1-0.4,0.4c0,3,0,6,0,9c0,1.7,0,3.4,0,5c0,0.1,0,0.2,0.1,0.3c-0.1,0.1-0.1,0.2-0.1,0.3c0,0.5,0,1.1,0,1.6
					c0,1.3,0,2.6,0,4c0,0,0,0.1,0,0.1c0,3.3,0,6.5,0,9.8c0,0.2,0.1,0.3,0.3,0.2c1.5,0,3,0,4.5,0c0.1,0,0.3,0,0.4-0.1
					c0.1,0.1,0.3,0.1,0.4,0.1c9.6,0,19.2,0,28.9,0c0.1,0,0.1,0,0.2,0c0.2,0,0.3-0.1,0.3-0.3C78.3,32.5,78.3,31.8,78.3,31.2z
					 M21.8,2.7c-6.2,0-12.4,0-18.6,0c-0.3,0-0.4,0.1-0.4,0.4c0,6.3,0,12.6,0,18.8c0,0.3,0.1,0.4,0.4,0.4c12.4,0,24.8,0,37.2,0
					c0.3,0,0.4-0.1,0.4-0.4c0-6.3,0-12.5,0-18.8c0-0.3-0.1-0.4-0.4-0.4C34.1,2.7,28,2.7,21.8,2.7z M21.7,33.4c6.2,0,12.4,0,18.7,0
					c0.3,0,0.4-0.1,0.3-0.3c0-3.1,0-6.3,0-9.4c0-0.3-0.1-0.4-0.4-0.4c-12.4,0-24.8,0-37.2,0c-0.3,0-0.4,0.1-0.4,0.4
					c0,3.1,0,6.3,0,9.4c0,0.3,0.1,0.4,0.4,0.4C9.3,33.4,15.5,33.4,21.7,33.4z"/>
				<path id="XMLID_117_" class="st3" d="M0.1,36c26.8,0,53.7,0,80.5,0c0.1,0,0.2,0,0.4,0c0,0,0,0.1,0,0.1c-26.9,0-53.8,0-80.6,0
					C0.3,36.1,0.1,36.1,0.1,36z"/>
				<path id="XMLID_116_" class="st4" d="M81,36.1C81,36,81,36,81,36.1c0-0.2,0-0.4,0-0.5c0-11.7,0-23.4,0-35.1c0-0.1,0-0.3,0-0.4
					c0,0,0.1,0,0.1,0c0,0.1,0,0.2,0,0.3c0,11.8,0,23.6,0,35.4C81.1,35.9,81.1,36,81,36.1z"/>
				<path id="XMLID_106_" class="st5" d="M21.8,2.7c6.2,0,12.4,0,18.6,0c0.4,0,0.4,0.1,0.4,0.4c0,6.3,0,12.5,0,18.8
					c0,0.3-0.1,0.4-0.4,0.4c-12.4,0-24.8,0-37.2,0c-0.3,0-0.4-0.1-0.4-0.4c0-6.3,0-12.6,0-18.8c0-0.3,0.1-0.4,0.4-0.4
					C9.4,2.7,15.6,2.7,21.8,2.7z M37.4,12.6c0-2.3,0-4.6,0-6.8c0-0.3-0.1-0.4-0.4-0.4c-0.4,0-0.8,0-1.2,0c-0.3,0-0.4,0-0.4,0.4
					c0,1.8,0,3.6,0,5.4c0,0.2,0,0.3-0.3,0.3c-0.6,0-1.2,0-1.8,0c-0.3,0-0.4,0-0.4-0.4c0-1.8,0-3.5,0-5.3c0-0.3,0-0.4-0.3-0.4
					c-0.4,0-0.8,0-1.2,0c-0.3,0-0.3,0.1-0.3,0.4c0,2.9,0,5.8,0,8.7c0,1.6,0,3.2,0,4.8c0,0.4,0.1,0.4,0.4,0.4c0.4,0,0.8,0,1.2,0
					c0.3,0,0.3-0.1,0.3-0.3c0-2,0-4,0-6c0-0.2,0.1-0.3,0.3-0.3c0.6,0,1.2,0,1.8,0c0.3,0,0.4,0.1,0.4,0.4c0,2,0,3.9,0,5.9
					c0,0.3,0.1,0.3,0.3,0.3c0.4,0,0.8,0,1.3,0c0.3,0,0.3-0.1,0.3-0.3C37.4,17.1,37.4,14.8,37.4,12.6z M12,11.4
					C12,11.4,12,11.4,12,11.4c0-1.9,0-3.8,0-5.7c0-0.2,0-0.3-0.3-0.3c-0.4,0-0.8,0-1.3,0c-0.3,0-0.4,0.1-0.4,0.4c0,3.6,0,7.3,0,10.9
					c0,0.2,0,0.4,0,0.5c-0.1,0.6-0.5,1-1,1c-0.6,0-1-0.3-1.1-0.9c-0.1-0.2-0.1-0.4-0.1-0.6c0-3.7,0-7.3,0-11c0-0.2,0-0.3-0.3-0.3
					c-0.4,0-0.9,0-1.3,0c-0.2,0-0.3,0-0.3,0.3c0,3.8,0,7.5,0,11.3c0,0.7,0.2,1.3,0.6,1.8c0.6,0.8,1.4,1,2.4,1.1
					c1.8,0.1,3.1-1.1,3.1-2.8C12,15.2,12,13.3,12,11.4z M25.1,5.4c-0.3,0-0.7,0-1,0c-0.2,0-0.3,0-0.3,0.2c-0.1,0.6-0.2,1.1-0.3,1.7
					c-0.4,2.5-0.8,5.1-1.2,7.6c-0.2,1.5-0.5,3-0.7,4.5c0,0.2,0,0.3,0.2,0.3c0.5,0,0.9,0,1.4,0c0.2,0,0.3-0.1,0.3-0.3
					c0.1-1.1,0.3-2.1,0.4-3.2c0-0.2,0.1-0.2,0.2-0.2c0.6,0,1.1,0,1.7,0c0.2,0,0.2,0.1,0.2,0.2c0.1,1.1,0.3,2.1,0.4,3.2
					c0,0.2,0.1,0.2,0.3,0.2c0.5,0,1,0,1.4,0c0.2,0,0.3-0.1,0.2-0.3c-0.1-0.5-0.1-0.9-0.2-1.4c-0.4-2.4-0.7-4.9-1.1-7.3
					c-0.3-1.7-0.5-3.4-0.8-5.1c0-0.2-0.1-0.3-0.3-0.2C25.8,5.4,25.4,5.4,25.1,5.4z M18.5,13.4c0-2,0-4,0-6c0-0.2,0.1-0.3,0.3-0.3
					c0.5,0,1,0,1.6,0c0.2,0,0.2,0,0.2-0.2c0-0.4,0-0.9,0-1.3c0-0.2,0-0.2-0.2-0.2c-1.9,0-3.7,0-5.6,0c-0.2,0-0.2,0.1-0.2,0.2
					c0,0.4,0,0.9,0,1.3c0,0.2,0.1,0.2,0.3,0.2c0.5,0,1,0,1.5,0c0.2,0,0.3,0,0.3,0.3c0,0.4,0,0.7,0,1.1c0,3.6,0,7.2,0,10.8
					c0,0.2,0,0.4,0.3,0.4c0.4,0,0.9,0,1.3,0c0.3,0,0.3-0.1,0.3-0.3C18.5,17.4,18.5,15.4,18.5,13.4z"/>
				<path id="XMLID_103_" class="st6" d="M43.5,17.3c-0.1-0.1-0.1-0.2-0.1-0.3c0-1.7,0-3.4,0-5c0.1,0,0.2-0.1,0.2-0.1
					c3-1.5,5.9-2.9,8.9-4.4c0.2-0.1,0.3-0.1,0.5-0.1c2.1,0.4,4.3,0.9,6.4,1.3c0.2,0,0.4,0,0.6-0.1c3-1.5,6-3,9-4.5
					c0.2-0.1,0.4-0.1,0.6,0c1.2,0.8,2.3,1.5,3.5,2.3c1.7,1.1,3.4,2.2,5.1,3.3c0,2.8,0,5.7,0,8.5c-0.1,0-0.2,0-0.3,0
					c-1.8,0.3-3.6,0.6-5.5,0.8c-2.5,0.3-5,0.7-7.4,1c-0.2,0-0.4,0-0.6-0.1c-3.3-2.1-6.5-4.1-9.8-6.2c-0.1-0.1-0.2-0.2-0.4-0.2
					c-2.1-0.1-4.1-0.3-6.2-0.4c-0.2,0-0.3,0.1-0.4,0.2c-0.6,0.9-1.3,1.8-2,2.7c-0.1,0.1-0.1,0.2-0.3,0.3
					C44.9,16.8,44.2,17,43.5,17.3z M62.1,9.7C62.1,9.7,62.1,9.7,62.1,9.7c0.1,0.1,0.1,0.1,0.1,0c2.3-0.7,4.6-1.3,6.8-2
					c0.2-0.1,0.4-0.1,0.7,0c0.7,0.1,1.3,0.3,2,0.4C71.7,8,71.7,8,71.7,7.9c-0.7-0.7-1.4-1.4-2-2.2c-0.2-0.2-0.3-0.2-0.5-0.1
					c-1.6,0.9-3.3,1.9-4.9,2.8C63.5,8.9,62.8,9.3,62.1,9.7z"/>
				<path id="XMLID_95_" class="st5" d="M21.7,33.4c-6.2,0-12.4,0-18.6,0c-0.3,0-0.4-0.1-0.4-0.4c0-3.1,0-6.3,0-9.4
					c0-0.3,0.1-0.4,0.4-0.4c12.4,0,24.8,0,37.2,0c0.3,0,0.4,0.1,0.4,0.4c0,3.1,0,6.3,0,9.4c0,0.3-0.1,0.3-0.3,0.3
					C34.2,33.4,28,33.4,21.7,33.4z M37.1,28.5c0.3-0.2,0.5-0.4,0.6-0.8c0.3-1-0.4-1.9-1.6-1.9c-0.7,0-1.5,0-2.2,0
					c-0.2,0-0.3,0-0.3,0.3c0,1.4,0,2.7,0,4.1c0,0.8,0,0.8,0.8,0.8c0.2,0,0.2,0,0.2-0.2c0-0.5,0-1,0-1.5c0-0.2,0-0.3,0.3-0.3
					c0.3,0,0.7,0,1,0c0.5,0,0.7,0.2,0.7,0.7c0,0.3,0,0.7,0,1c0,0.1,0,0.3,0.2,0.3c0.3,0,0.6,0,0.9,0c-0.2-0.5-0.1-0.9-0.1-1.3
					C37.6,29.1,37.5,28.8,37.1,28.5z M18.6,31c0.5,0,1-0.1,1.4-0.3c0.5-0.3,0.8-0.8,0.7-1.4c0-0.6-0.4-1-0.9-1.2
					c-0.4-0.1-0.7-0.2-1.1-0.3c-0.3-0.1-0.6-0.1-0.9-0.3c-0.3-0.1-0.3-0.4-0.2-0.6c0.3-0.4,0.7-0.4,1.1-0.3c0.3,0,0.7,0.1,0.7,0.5
					c0.1,0.3,0.2,0.3,0.5,0.3c0.1,0,0.2,0,0.4,0c0.2,0,0.3-0.1,0.2-0.3c-0.1-0.5-0.4-0.9-0.8-1.2c-0.8-0.4-1.7-0.4-2.5,0.1
					c-0.9,0.6-0.9,1.9,0.1,2.4c0.3,0.2,0.6,0.2,0.9,0.3c0.4,0.1,0.8,0.1,1.1,0.3c0.4,0.2,0.5,0.7,0,0.9c-0.5,0.3-1,0.3-1.5,0
					c-0.2-0.1-0.4-0.2-0.4-0.4c-0.1-0.4-0.3-0.4-0.5-0.3c-0.1,0-0.2,0-0.3,0c-0.2,0-0.2,0.1-0.2,0.2c0.1,0.5,0.3,0.9,0.7,1.2
					C17.6,30.9,18.1,31,18.6,31z M5.9,28.3c0,0.8,0,1.6,0,2.3c0,0.2,0.1,0.3,0.3,0.3c1,0,1.9,0,2.9,0c0.7,0,0.7,0,0.7-0.7
					C9.8,30,9.7,30,9.5,30c-0.5,0-1.1,0-1.6,0c-0.3,0-0.8,0.1-1-0.1c-0.2-0.2,0-0.6-0.1-1c0-0.2,0.1-0.3,0.3-0.3c0.5,0,0.9,0,1.4,0
					c0.7,0,0.7,0,0.7-0.7c0-0.2-0.1-0.2-0.2-0.2c-0.5,0-0.9,0-1.4,0c-0.8,0-0.8,0-0.8-0.9c0-0.2,0.1-0.2,0.2-0.2c0.6,0,1.3,0,1.9,0
					c0.6,0,0.6,0,0.6-0.6c0-0.2,0-0.3-0.3-0.3c-1.1,0-2.2,0-3.2,0c-0.2,0-0.3,0.1-0.3,0.3C5.9,26.8,5.9,27.6,5.9,28.3z M26.9,29.3
					c-0.2,0-0.4,0-0.7,0c-0.3,0-0.4,0-0.6,0.3c-0.5,0.6-1.3,0.8-1.9,0.3c-0.9-0.7-0.9-2.2-0.1-2.9c0.6-0.5,1.5-0.4,1.9,0.2
					c0.2,0.3,0.4,0.4,0.7,0.3c0.1,0,0.2,0,0.3,0c0.3,0,0.4,0,0.2-0.3c-0.5-1-1.6-1.6-2.8-1.4c-1.6,0.4-2.5,2.3-1.7,3.9
					c0.5,1,1.4,1.5,2.5,1.5C25.8,30.9,26.6,30.2,26.9,29.3z M12.7,25.8C12.7,25.8,12.7,25.8,12.7,25.8c-0.3,0-0.7,0-1,0
					c-0.3,0-0.3,0-0.3,0.3c0,1.4,0,2.7,0,4.1c0,0.8,0,0.8,0.8,0.7c0.2,0,0.2-0.1,0.2-0.2c0-0.5,0-0.9,0-1.4c0-0.2,0.1-0.2,0.2-0.2
					c0.4,0,0.8,0,1.3,0c0.8-0.1,1.4-0.8,1.4-1.7c0-0.9-0.6-1.6-1.5-1.6C13.4,25.8,13,25.8,12.7,25.8z M28.2,29c0,1.1,0.8,2,1.9,2
					c1.1,0,1.9-0.9,1.9-2c0-1.1-0.8-2-2-2C29,27,28.2,27.9,28.2,29z"/>
				<path id="XMLID_94_" class="st7" d="M48.6,33.3c-0.1,0-0.3,0.1-0.4,0.1c-1.5,0-3,0-4.5,0c-0.2,0-0.3,0-0.3-0.2
					c0-3.3,0-6.5,0-9.8c0,0,0-0.1,0-0.1c0.1,0,0.1,0,0.2,0c1,0.3,2.1,0.6,3.1,0.9c0.3,0.1,0.6,0.2,0.9,0.2c0.5,0,1-0.1,1.4-0.2
					c1.2-0.2,2.5-0.3,3.7-0.5c1-0.1,1.9-0.3,2.9-0.4c0.4,0,0.9-0.2,1.3-0.1c2.1,0.6,4.2,1.2,6.3,1.8c0.8,0.2,1.6,0.5,2.5,0.4
					c1.6-0.1,3.1-0.2,4.7-0.2c0.7,0,1.5-0.1,2.2-0.1c0.5,0,1,0,1.5-0.1c0.5-0.1,0.9,0,1.4,0.1c0.9,0.2,1.8,0.4,2.7,0.6
					c0,1.8,0,3.7,0,5.5c-0.6,0.1-1.2,0.2-1.8,0.2c-0.6,0.1-1.1,0.3-1.6,0.2c-2.1-0.3-4.1-0.7-6.1-1.1c-1.3-0.2-2.5-0.4-3.8-0.4
					c-2.7,0-5.4,0-8.2,0c-0.2,0-0.4,0-0.6,0.1C53.7,31.3,51.1,32.3,48.6,33.3z"/>
				<path id="XMLID_91_" class="st8" d="M78.3,25.7c-0.9-0.1-1.8-0.3-2.7-0.6C75.1,25,74.7,25,74.2,25c-0.5,0.1-1,0-1.5,0.1
					c-0.7,0-1.5,0.1-2.2,0.1c-1.6,0.1-3.1,0.1-4.7,0.2c-0.9,0.1-1.7-0.1-2.5-0.4c-2.1-0.6-4.2-1.2-6.3-1.8c-0.5-0.1-0.9,0-1.3,0.1
					c-1,0.1-1.9,0.3-2.9,0.4c-1.2,0.2-2.5,0.4-3.7,0.5c-0.5,0.1-1,0.1-1.4,0.2c-0.3,0-0.6-0.1-0.9-0.2c-1-0.3-2.1-0.6-3.1-0.9
					c-0.1,0-0.1,0-0.2,0c0-1.3,0-2.6,0-4c0-0.5,0-1.1,0-1.6c0-0.1,0-0.2,0.1-0.3c0.7-0.3,1.4-0.5,2-0.8c0.1-0.1,0.2-0.2,0.3-0.3
					c0.7-0.9,1.3-1.8,2-2.7c0.1-0.2,0.2-0.2,0.4-0.2c2.1,0.1,4.1,0.3,6.2,0.4c0.2,0,0.3,0.1,0.4,0.2c3.3,2.1,6.5,4.1,9.8,6.2
					c0.2,0.1,0.3,0.2,0.6,0.1c2.5-0.4,5-0.7,7.4-1c1.8-0.3,3.7-0.5,5.5-0.8c0.1,0,0.2,0,0.3,0C78.3,20.8,78.3,23.2,78.3,25.7z
					 M60.3,20.6C60.3,20.6,60.3,20.5,60.3,20.6c0-0.1,0-0.1-0.1-0.1c-2.1-1.7-4.2-3.4-6.3-5.1c-0.1-0.1-0.2-0.1-0.3-0.1
					c-1.6,0.2-3.1,0.5-4.7,0.7c-0.4,0.1-0.6,0.2-0.7,0.6c-0.2,0.8-0.6,1.6-0.8,2.4c1.5,0.2,2.9,0.3,4.3,0.3c0.9,0,1.7,0,2.6,0.1
					c0.9,0.1,1.8,0.4,2.7,0.5C58.1,20.2,59.2,20.4,60.3,20.6z"/>
				<path id="XMLID_90_" class="st9" d="M78.3,9.8c-1.7-1.1-3.4-2.2-5.1-3.3c-1.2-0.8-2.3-1.5-3.5-2.3c-0.2-0.1-0.4-0.1-0.6,0
					c-3,1.5-6,3-9,4.5c-0.2,0.1-0.4,0.1-0.6,0.1c-2.1-0.4-4.3-0.9-6.4-1.3c-0.2,0-0.4,0-0.5,0.1c-3,1.5-5.9,2.9-8.9,4.4
					c-0.1,0-0.2,0.1-0.2,0.1c0-3,0-6,0-9c0-0.3,0.1-0.4,0.4-0.4c11.4,0,22.8,0,34.2,0c0.2,0,0.3,0,0.3,0.3
					C78.3,5.2,78.3,7.5,78.3,9.8z"/>
				<path id="XMLID_89_" class="st10" d="M48.6,33.3c2.6-1,5.1-2,7.7-3c0.2-0.1,0.4-0.1,0.6-0.1c2.7,0,5.4,0,8.2,0
					c1.3,0,2.5,0.1,3.8,0.4c2,0.4,4.1,0.7,6.1,1.1c0.5,0.1,1.1-0.1,1.6-0.2c0.6-0.1,1.2-0.2,1.8-0.2c0,0.6,0,1.3,0,1.9
					c0,0.2-0.1,0.3-0.3,0.3c-0.1,0-0.1,0-0.2,0c-9.6,0-19.2,0-28.9,0C48.8,33.4,48.7,33.5,48.6,33.3z"/>
				<path id="XMLID_88_" class="st4" d="M37.4,12.6c0,2.3,0,4.5,0,6.8c0,0.2,0,0.4-0.3,0.3c-0.4,0-0.8,0-1.3,0
					c-0.2,0-0.3-0.1-0.3-0.3c0-2,0-3.9,0-5.9c0-0.3-0.1-0.4-0.4-0.4c-0.6,0-1.2,0-1.8,0c-0.2,0-0.3,0.1-0.3,0.3c0,2,0,4,0,6
					c0,0.3-0.1,0.3-0.3,0.3c-0.4,0-0.8,0-1.2,0c-0.3,0-0.4-0.1-0.4-0.4c0-1.6,0-3.2,0-4.8c0-2.9,0-5.8,0-8.7c0-0.3,0.1-0.4,0.3-0.4
					c0.4,0,0.8,0,1.2,0C33,5.3,33,5.4,33,5.7c0,1.8,0,3.5,0,5.3c0,0.3,0.1,0.4,0.4,0.4c0.6,0,1.2,0,1.8,0c0.2,0,0.3-0.1,0.3-0.3
					c0-1.8,0-3.6,0-5.4c0-0.3,0.1-0.4,0.4-0.4c0.4,0,0.8,0,1.2,0c0.3,0,0.4,0.1,0.4,0.4C37.4,8,37.4,10.3,37.4,12.6z"/>
				<path id="XMLID_87_" class="st11" d="M12,11.4c0,1.9,0,3.8,0,5.6c0,1.8-1.3,2.9-3.1,2.8c-0.9-0.1-1.8-0.3-2.4-1.1
					c-0.4-0.5-0.6-1.2-0.6-1.8c0-3.8,0-7.5,0-11.3c0-0.3,0.1-0.3,0.3-0.3c0.4,0,0.9,0,1.3,0c0.3,0,0.3,0.1,0.3,0.3c0,3.7,0,7.3,0,11
					c0,0.2,0,0.4,0.1,0.6C8,17.8,8.4,18.2,9,18.1c0.6,0,0.9-0.4,1-1c0-0.2,0-0.4,0-0.5c0-3.6,0-7.3,0-10.9c0-0.3,0.1-0.4,0.4-0.4
					c0.4,0,0.8,0,1.3,0c0.2,0,0.3,0.1,0.3,0.3C12,7.6,12,9.5,12,11.4C12,11.4,12,11.4,12,11.4z"/>
				<path id="XMLID_84_" class="st11" d="M25.1,5.4c0.3,0,0.6,0,1,0c0.2,0,0.3,0,0.3,0.2c0.3,1.7,0.5,3.4,0.8,5.1
					c0.4,2.4,0.7,4.9,1.1,7.3c0.1,0.5,0.1,0.9,0.2,1.4c0,0.2,0,0.3-0.2,0.3c-0.5,0-1,0-1.4,0c-0.2,0-0.2-0.1-0.3-0.2
					c-0.1-1.1-0.3-2.1-0.4-3.2c0-0.2-0.1-0.2-0.2-0.2c-0.6,0-1.1,0-1.7,0c-0.2,0-0.2,0-0.2,0.2c-0.1,1.1-0.3,2.1-0.4,3.2
					c0,0.2-0.1,0.3-0.3,0.3c-0.5,0-0.9,0-1.4,0c-0.2,0-0.3-0.1-0.2-0.3c0.2-1.5,0.5-3,0.7-4.5c0.4-2.5,0.8-5.1,1.2-7.6
					c0.1-0.6,0.2-1.1,0.3-1.7c0-0.2,0.1-0.2,0.3-0.2C24.4,5.4,24.8,5.4,25.1,5.4z M25.1,7.5C25,8.1,25,8.6,24.9,9.1
					c-0.2,1.7-0.4,3.4-0.6,5.1c0,0.2,0,0.2,0.2,0.2c0.4,0,0.8,0,1.1,0c0.2,0,0.2-0.1,0.2-0.3c-0.2-1.9-0.5-3.7-0.7-5.6
					C25.2,8.3,25.2,7.9,25.1,7.5z"/>
				<path id="XMLID_83_" class="st4" d="M18.5,13.4c0,2,0,4,0,6c0,0.2,0,0.3-0.3,0.3c-0.4,0-0.9,0-1.3,0c-0.3,0-0.3-0.1-0.3-0.4
					c0-3.6,0-7.2,0-10.8c0-0.4,0-0.7,0-1.1c0-0.2-0.1-0.3-0.3-0.3c-0.5,0-1,0-1.5,0c-0.2,0-0.3,0-0.3-0.2c0-0.4,0-0.9,0-1.3
					c0-0.2,0-0.2,0.2-0.2c1.9,0,3.7,0,5.6,0c0.2,0,0.2,0,0.2,0.2c0,0.4,0,0.9,0,1.3c0,0.2,0,0.2-0.2,0.2c-0.5,0-1,0-1.6,0
					c-0.2,0-0.3,0.1-0.3,0.3C18.5,9.4,18.5,11.4,18.5,13.4z"/>
				<path id="XMLID_82_" class="st12" d="M62.1,9.7c0.7-0.4,1.4-0.8,2.1-1.2c1.6-0.9,3.3-1.9,4.9-2.8c0.2-0.1,0.3-0.1,0.5,0.1
					c0.7,0.7,1.3,1.5,2,2.2c0,0,0,0.1,0.1,0.2c-0.7-0.1-1.4-0.3-2-0.4c-0.2,0-0.4,0-0.7,0c-2.3,0.7-4.6,1.3-6.8,2
					C62.2,9.7,62.2,9.7,62.1,9.7C62.1,9.7,62.1,9.7,62.1,9.7z"/>
				<path id="XMLID_79_" class="st4" d="M37.1,28.5c0.4,0.3,0.5,0.7,0.5,1.1c0,0.4,0,0.9,0.1,1.3c-0.3,0-0.6,0-0.9,0
					c-0.2,0-0.2-0.2-0.2-0.3c0-0.3,0-0.7,0-1c0-0.5-0.2-0.7-0.7-0.7c-0.3,0-0.7,0-1,0c-0.2,0-0.3,0.1-0.3,0.3c0,0.5,0,1,0,1.5
					c0,0.2-0.1,0.2-0.2,0.2c-0.8,0-0.8,0-0.8-0.8c0-1.4,0-2.7,0-4.1c0-0.3,0.1-0.3,0.3-0.3c0.7,0,1.5,0,2.2,0c1.2,0,1.8,0.9,1.6,1.9
					C37.6,28,37.4,28.3,37.1,28.5z M35.5,28c0.2,0,0.5,0,0.8-0.1c0.3-0.1,0.5-0.4,0.5-0.7c0-0.3-0.2-0.5-0.6-0.5c-0.3,0-0.6,0-1,0
					c-0.6,0-0.6,0-0.6,0.6C34.6,28,34.6,28,35.5,28z"/>
				<path id="XMLID_78_" class="st13" d="M18.6,31c-0.5,0-1-0.1-1.4-0.4c-0.4-0.3-0.7-0.7-0.7-1.2c0-0.2,0-0.3,0.2-0.2
					c0.1,0,0.2,0,0.3,0c0.3,0,0.5,0,0.5,0.3c0,0.2,0.2,0.3,0.4,0.4c0.5,0.2,1,0.2,1.5,0c0.4-0.2,0.4-0.7,0-0.9
					c-0.4-0.2-0.7-0.2-1.1-0.3c-0.3-0.1-0.6-0.2-0.9-0.3c-1-0.5-1-1.8-0.1-2.4c0.8-0.5,1.6-0.5,2.5-0.1c0.5,0.2,0.7,0.6,0.8,1.2
					c0,0.2,0,0.3-0.2,0.3c-0.1,0-0.2,0-0.4,0c-0.2,0-0.4,0-0.5-0.3c-0.1-0.3-0.4-0.4-0.7-0.5c-0.4,0-0.8,0-1.1,0.3
					c-0.2,0.2-0.1,0.5,0.2,0.6c0.3,0.2,0.6,0.2,0.9,0.3c0.4,0.1,0.7,0.2,1.1,0.3c0.5,0.2,0.9,0.6,0.9,1.2c0,0.6-0.2,1.1-0.7,1.4
					C19.6,30.9,19.1,31,18.6,31z"/>
				<path id="XMLID_77_" class="st4" d="M5.9,28.3c0-0.8,0-1.5,0-2.3c0-0.2,0-0.3,0.3-0.3c1.1,0,2.2,0,3.2,0c0.2,0,0.3,0.1,0.3,0.3
					c0,0.6,0,0.6-0.6,0.6c-0.6,0-1.3,0-1.9,0c-0.2,0-0.2,0.1-0.2,0.2c0,0.9,0,0.9,0.8,0.9c0.5,0,0.9,0,1.4,0c0.2,0,0.2,0,0.2,0.2
					c0,0.7,0,0.7-0.7,0.7c-0.5,0-0.9,0-1.4,0c-0.2,0-0.3,0-0.3,0.3c0,0.3-0.1,0.8,0.1,1c0.2,0.2,0.6,0.1,1,0.1c0.5,0,1.1,0,1.6,0
					c0.2,0,0.2,0,0.2,0.2c0,0.7,0,0.7-0.7,0.7c-1,0-1.9,0-2.9,0c-0.2,0-0.3-0.1-0.3-0.3C6,29.9,5.9,29.1,5.9,28.3z"/>
				<path id="XMLID_76_" class="st13" d="M26.9,29.3c-0.3,1-1.1,1.6-2,1.7c-1.1,0.1-2.1-0.4-2.5-1.5c-0.7-1.6,0.1-3.5,1.7-3.9
					c1.1-0.3,2.3,0.3,2.8,1.4c0.1,0.3,0,0.3-0.2,0.3c-0.1,0-0.2,0-0.3,0c-0.3,0-0.5-0.1-0.7-0.3c-0.5-0.6-1.3-0.6-1.9-0.2
					c-0.9,0.7-0.8,2.2,0.1,2.9c0.6,0.5,1.5,0.4,1.9-0.3c0.2-0.2,0.3-0.3,0.6-0.3C26.4,29.3,26.7,29.3,26.9,29.3z"/>
				<path id="XMLID_73_" class="st4" d="M12.7,25.8c0.4,0,0.7,0,1.1,0c0.9,0,1.4,0.7,1.5,1.6c0,0.9-0.5,1.6-1.4,1.7
					c-0.4,0-0.8,0-1.3,0c-0.2,0-0.2,0.1-0.2,0.2c0,0.5,0,0.9,0,1.4c0,0.2,0,0.2-0.2,0.2c-0.8,0-0.8,0-0.8-0.7c0-1.4,0-2.7,0-4.1
					c0-0.3,0.1-0.3,0.3-0.3C12,25.8,12.3,25.8,12.7,25.8C12.7,25.8,12.7,25.8,12.7,25.8z M12.3,27.4c0,0.2,0,0.3,0,0.5
					c0,0.2,0,0.3,0.3,0.3c0.3,0,0.6,0,0.9,0c0.5,0,0.7-0.2,0.7-0.7c0-0.5-0.2-0.7-0.7-0.8c-0.2,0-0.3,0-0.5,0
					C12.3,26.7,12.3,26.7,12.3,27.4z"/>
				<path id="XMLID_70_" class="st13" d="M28.2,29c0-1.1,0.8-2,1.9-2c1.1,0,2,0.9,2,2c0,1.1-0.8,2-1.9,2C29,31,28.2,30.2,28.2,29z
					 M29.2,29c0,0.6,0.3,1,0.8,1.1c0.4,0.1,0.9-0.2,1-0.6c0.1-0.4,0.1-0.8-0.1-1.1c-0.4-0.6-1.2-0.5-1.5,0.1
					C29.3,28.6,29.2,28.8,29.2,29z"/>
				<path id="XMLID_69_" class="st14" d="M60.3,20.6c-1.1-0.2-2.2-0.4-3.2-0.6c-0.9-0.2-1.8-0.4-2.7-0.5c-0.9-0.1-1.7-0.1-2.6-0.1
					c-1.4-0.1-2.9-0.2-4.3-0.3c0.3-0.8,0.6-1.6,0.8-2.4c0.1-0.4,0.3-0.5,0.7-0.6c1.6-0.2,3.1-0.5,4.7-0.7c0.1,0,0.2,0,0.3,0.1
					c2.1,1.7,4.2,3.4,6.3,5.1C60.2,20.5,60.2,20.5,60.3,20.6C60.3,20.5,60.3,20.6,60.3,20.6z"/>
				<path id="XMLID_68_" class="st15" d="M25.1,7.5c0.1,0.4,0.1,0.8,0.1,1.1c0.2,1.9,0.4,3.7,0.7,5.6c0,0.2,0,0.3-0.2,0.3
					c-0.4,0-0.8,0-1.1,0c-0.2,0-0.2,0-0.2-0.2c0.2-1.7,0.4-3.4,0.6-5.1C25,8.6,25,8.1,25.1,7.5z"/>
				<path id="XMLID_67_" class="st15" d="M35.5,28c-0.8,0-0.8,0-0.8-0.8c0-0.6,0-0.6,0.6-0.6c0.3,0,0.6,0,1,0c0.4,0,0.6,0.2,0.6,0.5
					c0,0.4-0.1,0.6-0.5,0.7C36,28.1,35.7,28,35.5,28z"/>
				<path id="XMLID_66_" class="st15" d="M12.3,27.4c0-0.7,0-0.7,0.7-0.7c0.2,0,0.3,0,0.5,0c0.5,0,0.7,0.3,0.7,0.8
					c0,0.5-0.3,0.7-0.7,0.7c-0.3,0-0.6,0-0.9,0c-0.2,0-0.3-0.1-0.3-0.3C12.3,27.7,12.3,27.6,12.3,27.4z"/>
				<path id="XMLID_65_" class="st15" d="M29.2,29c0-0.2,0-0.4,0.1-0.6c0.3-0.6,1.1-0.7,1.5-0.1c0.2,0.3,0.3,0.7,0.1,1.1
					c-0.2,0.5-0.6,0.7-1,0.6C29.5,30,29.2,29.6,29.2,29z"/>
			</g>
		</g>
	</g>
</g>
</svg>
