<?xml version="1.0" encoding="utf-8"?>
<!-- Generator: Adobe Illustrator 19.0.1, SVG Export Plug-In . SVG Version: 6.00 Build 0)  -->
<svg version="1.1" id="Layer_1" xmlns="http://www.w3.org/2000/svg" xmlns:xlink="http://www.w3.org/1999/xlink" x="0px" y="0px"
	 viewBox="0 0 100 100" style="enable-background:new 0 0 100 100;" xml:space="preserve">
<style type="text/css">
	.st0{fill:#DF995E;}
	.st1{fill:#D1711C;}
	.st2{fill:#EFC7A4;}
	.st3{fill:#D1701B;}
</style>
<g>
	<path class="st0" d="M99.2,99.5C80.1,84.8,61,70.2,41.9,55.5c-0.7-0.5-1.1-1-0.8-2c3.2-10.4,6.3-20.8,9.4-31.2
		c0-0.1,0.1-0.2,0.3-0.5c16.3,25.9,32.5,51.6,48.8,77.4C99.4,99.3,99.3,99.4,99.2,99.5z"/>
	<path class="st1" d="M0,86.2c0-23.3,0-46.3,0-69.8c1.1,1.3,2.1,2.4,3,3.5c9.8,11.7,19.5,23.3,29.3,35c0.5,0.7,1,1.1,0.1,1.9
		C21.7,66.4,11.2,76.1,0.6,85.9C0.5,86,0.3,86,0,86.2z"/>
	<path class="st0" d="M35.9,58.9c1.2,4.3,2.3,8.4,3.5,12.4c2.5,9,4.9,18.1,7.5,27.1c0.3,1.1,0.3,1.6-1.1,1.6c-14.9,0-29.8,0-44.6,0
		c-0.2,0-0.5,0-1.1-0.1C12,86.1,23.9,72.6,35.9,58.9z"/>
	<path class="st2" d="M99.3,86.9c-1.6-1.4-2.6-3.3-3.8-5C85,67.2,74.6,52.5,64.1,37.8c-3.9-5.5-7.8-11-11.7-16.5
		c-0.5-0.7-0.7-1.1,0.4-1.6c5.8-2.8,11.6-5.6,17.3-8.5c1.2-0.6,1.6-0.4,2.1,0.9c4.1,11.5,8.4,22.9,12.5,34.3
		c4.6,12.5,9.2,25,13.8,37.6C98.9,85,99.3,85.9,99.3,86.9L99.3,86.9z"/>
	<path class="st2" d="M32.4,0c0.1,1.9,0.3,3.6,0.3,5.3c0.1,5.4,0.2,10.8,0.4,16.1c0.3,6.5,0.4,13.1,0.7,19.6
		c0.1,2.6,0.2,5.3,0.2,7.9c0,0.3,0.2,0.8-0.2,1c-0.4,0.2-0.7-0.2-0.9-0.5c-7.6-7.9-15.3-15.9-22.9-23.9c-2.9-3-5.8-6.2-8.7-9.2
		c-0.7-0.7-0.6-1,0.2-1.5c8.8-4.3,17.7-8.5,26.5-12.8C29.5,1.5,30.8,0.8,32.4,0z"/>
	<path class="st3" d="M39.8,58.6c3.9,3.4,7.9,6.7,11.8,10.1c11.9,10.3,23.9,20.7,35.8,31c-0.2,0.5-0.6,0.3-1,0.3
		c-9.1,0-18.3,0-27.4,0c-0.8,0-1.3-0.1-1.7-1c-5.8-13.2-11.7-26.4-17.5-39.6c-0.1-0.2-0.1-0.4-0.2-0.6
		C39.7,58.7,39.8,58.7,39.8,58.6z"/>
	<path class="st1" d="M99.7,73C91,52.8,82.3,32.7,73.5,12.4c0.6-0.2,0.8,0.2,0.9,0.4C82.7,23.6,91,34.2,99.3,44.9
		c0.4,0.5,0.7,1,0.7,1.7c0,8.8,0,17.5,0,26.3C99.9,73,99.8,73,99.7,73z"/>
	<path class="st1" d="M34.2,1.2c0.9,1.1,1.8,2.3,2.7,3.4c3.9,5.1,7.8,10.1,11.7,15.2c0.4,0.6,0.7,1,0.4,1.8
		c-3.5,8.9-6.9,17.9-10.3,26.8c-0.1,0.3-0.1,0.7-0.8,0.7c-1.3-15.9-2.7-31.8-4-47.8C34,1.3,34.1,1.2,34.2,1.2z"/>
	<path class="st1" d="M73.1,11.9c0.1-0.1,0.1-0.2,0.2-0.2c0.1,0,0.2,0.1,0.2,0.1c0,0.1,0,0.3-0.2,0.2C73.3,12.1,73.2,12,73.1,11.9z"
		/>
	<path class="st2" d="M99.4,86.9c0.1,0.1,0.2,0.2,0.2,0.4c0,0-0.1,0.1-0.1,0.1C99.4,87.2,99.4,87.1,99.4,86.9
		C99.3,86.9,99.4,86.9,99.4,86.9z"/>
	<path class="st3" d="M39.6,58.8c0-0.1-0.1-0.3-0.1-0.4c0.2-0.1,0.2,0,0.3,0.2C39.8,58.7,39.7,58.7,39.6,58.8z"/>
</g>
</svg>
